# xmcd
#
# Track frame offsets: 
#        150
#        33005
#        63415
#        88195
#        114179
#        134890
#        176752
#        213549
#        244927
#
# Disc length: 3779 seconds
#
# Revision: 0
# Processed by: cddbd v1.5.2PL0 Copyright (c) Steve Scherf et al.
# Submitted via: ExactAudioCopyFreeDBPlugin 1.0
#
DISCID=810ec109
DTITLE=Hypsiphrone - And the Void Shall Pierce Their Eyes
DYEAR=2011
DGENRE=Doom Metal
TTITLE0=A Momentary Illusion of Light and Hope
TTITLE1=An Epiphany Written in Blood
TTITLE2=Bleak Cold Shadows
TTITLE3=Her Name Is Upon the Graves of Those She Slays
TTITLE4=Embrace of Soul and Flesh
TTITLE5=Resurgence of Mars Sexualis
TTITLE6=Cornucopia Sabbati
TTITLE7=Worlds Are Wounds of Desolation
TTITLE8=Into Your Hands I Commit My Spirit
EXTD=
EXTT0=
EXTT1=
EXTT2=
EXTT3=
EXTT4=
EXTT5=
EXTT6=
EXTT7=
EXTT8=
PLAYORDER=
